<?xml version="1.0" encoding="utf-8"?>
<!-- Generator: Adobe Illustrator 22.0.1, SVG Export Plug-In . SVG Version: 6.00 Build 0)  -->
<svg version="1.1" xmlns="http://www.w3.org/2000/svg" xmlns:xlink="http://www.w3.org/1999/xlink" x="0px" y="0px"
	 viewBox="0 0 730 470" style="enable-background:new 0 0 730 470;" xml:space="preserve">
<style type="text/css">
	.st0{fill:none;stroke:#012D73;stroke-width:0.8;stroke-miterlimit:10;}
	.st1{fill:none;stroke:#012D73;stroke-width:0.5;stroke-miterlimit:10;}
	.st2{fill:none;stroke:#012D73;stroke-width:0.5143;stroke-miterlimit:10;}
	.st3{fill:none;stroke:#012D73;stroke-width:0.5316;stroke-miterlimit:10;}
	.st4{fill:none;stroke:#012D73;stroke-width:1.2;stroke-miterlimit:10;}
	.st5{fill:none;stroke:#012D73;stroke-width:0.8;stroke-linejoin:bevel;stroke-miterlimit:10;}
	.st6{fill:none;stroke:#012D73;stroke-width:0.6;stroke-miterlimit:10;}
	.st7{fill:none;stroke:#012D73;stroke-width:0.7;stroke-miterlimit:10;}
	.st8{fill:none;stroke:#012D73;stroke-width:0.4;stroke-miterlimit:10;}
	.st9{fill:none;stroke:#012D73;stroke-width:0.6;stroke-linejoin:round;stroke-miterlimit:10;}
	.st10{fill:#012D73;}
	.st11{fill:none;stroke:#012D73;stroke-width:0.55;stroke-miterlimit:10;}
	.st12{fill:none;stroke:#012D73;stroke-width:0.8;stroke-linejoin:round;stroke-miterlimit:10;}
	.st13{fill:none;stroke:#012D73;stroke-width:0.4;stroke-linejoin:round;stroke-miterlimit:10;}
	.st14{fill:none;stroke:#012D73;stroke-width:0.7;stroke-linejoin:round;stroke-miterlimit:10;}
	.st15{fill:none;stroke:#012D73;stroke-width:0.5;stroke-linejoin:round;stroke-miterlimit:10;}
	.st16{fill:none;stroke:#012D73;stroke-width:0.5;stroke-linejoin:bevel;stroke-miterlimit:10;}
	.st17{fill:none;stroke:#012D73;stroke-width:0.6;stroke-linejoin:bevel;stroke-miterlimit:10;}
	.st18{fill:none;stroke:#012D73;stroke-width:0.45;stroke-miterlimit:10;}
	.st19{fill:#012D73;stroke:#012D73;stroke-width:0.8;stroke-miterlimit:10;}
	.st20{fill:#012D73;stroke:#012D73;stroke-width:0.5;stroke-miterlimit:10;}
	.st21{fill:#012D73;stroke:#012D73;stroke-width:0.7;stroke-miterlimit:10;}
	.st22{fill:#012D73;stroke:#012D73;stroke-width:0.6;stroke-miterlimit:10;}
	.st23{fill:none;stroke:#012D73;stroke-width:0.3;stroke-miterlimit:10;}
	.st24{fill:none;stroke:#012D73;stroke-width:2;stroke-miterlimit:10;}
	.st25{fill:none;stroke:#012D73;stroke-width:0.4679;stroke-miterlimit:10;}
	.st26{fill:none;stroke:#012D73;stroke-width:0.3776;stroke-miterlimit:10;}
	.st27{fill:none;stroke:#012D73;stroke-miterlimit:10;}
	.st28{fill:#00DCDE;stroke:#FFFFFF;stroke-miterlimit:10;}
	.st29{fill:none;stroke:#012D73;stroke-width:3;stroke-miterlimit:10;}
</style>
<g id="Layer_11">
</g>
<g id="Bispetorvet_2">
	<polygon class="st0" points="237.2,223.2 223.1,226.4 223.1,196.4 237.2,192.8 	"/>
	<polygon class="st0" points="207.1,230 193.8,232.9 193.8,204.4 207.1,200.9 	"/>
	<polygon class="st0" points="206.5,285.2 194.1,286.8 194.1,259.2 206.5,257 	"/>
	<polygon class="st0" points="236.4,281.1 222.9,282.7 222.9,253.9 236.4,251.2 	"/>
	<polygon class="st0" points="269,276.4 253.8,278 253.8,248.1 269,245.2 	"/>
	<polygon class="st0" points="304,270.9 287.9,273.1 287.9,241.7 304.1,238.7 	"/>
	<polygon class="st0" points="342.8,265.7 324.6,267.9 324.3,234.9 342.9,231.6 	"/>
	<polygon class="st0" points="269.1,215.8 255.1,219.4 255.1,188.4 269.1,184.8 	"/>
	<polygon class="st0" points="304.7,207.6 288.2,211.4 288.2,178.9 304.7,175.1 	"/>
	<polygon class="st0" points="343.1,199.3 324.9,203.4 324.9,169.2 334.1,167.1 343.1,165.1 	"/>
	<line class="st0" x1="262.2" y1="186.6" x2="262.2" y2="217.6"/>
	<line class="st0" x1="230.4" y1="194.6" x2="230.4" y2="224.8"/>
	<line class="st0" x1="200.9" y1="202.6" x2="200.9" y2="231.5"/>
	<line class="st0" x1="269.1" y1="197.5" x2="254.9" y2="201"/>
	<line class="st0" x1="237.1" y1="205.5" x2="223.1" y2="209"/>
	<line class="st0" x1="206.9" y1="213.1" x2="193.7" y2="216.7"/>
	<line class="st0" x1="296.6" y1="177.1" x2="296.6" y2="209.3"/>
	<line class="st0" x1="304.8" y1="188.7" x2="288.2" y2="192.7"/>
	<line class="st0" x1="334.1" y1="167.1" x2="334.1" y2="201.1"/>
	<line class="st0" x1="343.1" y1="179" x2="324.9" y2="183.4"/>
	<line class="st0" x1="229.5" y1="252.8" x2="229.5" y2="282"/>
	<line class="st0" x1="236.3" y1="264.8" x2="222.8" y2="267"/>
	<line class="st0" x1="200.3" y1="258.3" x2="200.3" y2="286.1"/>
	<line class="st0" x1="206.4" y1="269.4" x2="194.1" y2="271.3"/>
	<path class="st0" d="M261.6,246.6c0.1,0.2,0,30.5,0,30.5"/>
	<line class="st0" x1="268.9" y1="258.5" x2="253.8" y2="260.8"/>
	<line class="st0" x1="296.1" y1="271.7" x2="296.1" y2="240"/>
	<line class="st0" x1="303.9" y1="252.3" x2="287.8" y2="254.8"/>
	<line class="st0" x1="333.7" y1="233.1" x2="333.7" y2="266.3"/>
	<path class="st0" d="M342.9,245.5c-0.2,0-18.6,2.6-18.6,2.6"/>
	<polyline class="st1" points="305.1,210.7 285.9,214.9 285.9,212.3 	"/>
	<polyline class="st0" points="135.5,352.1 135.7,211.3 129.1,207.6 	"/>
	<line class="st0" x1="136" y1="434.5" x2="136" y2="355.6"/>
	<path class="st0" d="M158.8,372c-5.5,2.4-5.9,10.2-5.9,10.2v51.8"/>
	<path class="st0" d="M145.8,434.6v-52.4c0,0,0.5-10.9,9.4-10.9s8.6,11.2,8.6,11.2v52.1"/>
	<path class="st0" d="M189.7,428.1v-45.7c0,0,0.5-12.4,10.6-12.4s9.8,12.7,9.8,12.7v39.8"/>
	<path class="st0" d="M233.8,370c-7.1,2.9-7.5,12.8-7.5,12.8v39.8"/>
	<path class="st0" d="M218,423.2v-40.4c0,0,0.6-13.6,11.6-13.6s10.7,13.9,10.7,13.9v40"/>
	<path class="st0" d="M266.2,368.1c-7.1,3.1-7.7,13.2-7.7,13.2V423"/>
	<path class="st0" d="M249.9,423.2v-41.9c0,0,0.6-14.1,12.1-14.1c11.5,0,11.1,14.4,11.1,14.4v41.4"/>
	<path class="st0" d="M299.9,367.3c-9.4,3.8-10.2,17.1-10.2,17.1v38.7"/>
	<path class="st0" d="M281.5,423.2v-40.4c0,0,0.7-16.4,14-16.4c13.4,0,12.9,16.7,12.9,16.7v40.1"/>
	<path class="st0" d="M317.8,440.3v-60c0,0,0.8-16.4,15.5-16.4c14.8,0,14.3,16.7,14.3,16.7v59.6"/>
	<rect x="319.6" y="379.9" class="st0" width="27.8" height="29.3"/>
	<line class="st0" x1="334.2" y1="379.8" x2="334.2" y2="409.2"/>
	<line class="st0" x1="321.8" y1="380" x2="321.8" y2="408.9"/>
	<line class="st0" x1="317.5" y1="412" x2="347.3" y2="412"/>
	<path class="st0" d="M200.3,370c0,0-8.8,3.1-8.8,12.8c0,8.5,0,43.7,0,43.7"/>
	<rect x="191.5" y="383.4" class="st0" width="18.5" height="24.6"/>
	<line class="st0" x1="202.1" y1="383.3" x2="202.1" y2="408"/>
	<polyline class="st0" points="218,410.7 198.7,411 184.1,423 184.1,438.9 	"/>
	<polyline class="st0" points="218.1,422.8 200.2,422.8 187.9,434.3 187.9,438.7 	"/>
	<line class="st1" x1="216.5" y1="410.7" x2="216.5" y2="422.8"/>
	<line class="st1" x1="214.1" y1="410.7" x2="214.1" y2="422.8"/>
	<line class="st1" x1="211.7" y1="410.7" x2="211.7" y2="422.8"/>
	<line class="st1" x1="208.9" y1="410.7" x2="208.9" y2="422.8"/>
	<line class="st1" x1="207" y1="410.7" x2="207" y2="422.8"/>
	<line class="st1" x1="204.6" y1="410.7" x2="204.6" y2="422.8"/>
	<line class="st1" x1="202.2" y1="410.7" x2="202.2" y2="422.8"/>
	<line class="st1" x1="199.9" y1="410.7" x2="199.9" y2="422.8"/>
	<line class="st2" x1="197.6" y1="411.9" x2="197.6" y2="424.8"/>
	<line class="st3" x1="195.6" y1="413.4" x2="195.6" y2="427.2"/>
	<line class="st3" x1="193.5" y1="415.4" x2="193.5" y2="429.1"/>
	<line class="st3" x1="191.6" y1="417.1" x2="191.6" y2="430.9"/>
	<line class="st3" x1="189.7" y1="418.7" x2="189.7" y2="432.4"/>
	<line class="st3" x1="188" y1="420.2" x2="188" y2="434.3"/>
	<line class="st0" x1="351.5" y1="444.8" x2="351.5" y2="338.3"/>
	<path class="st0" d="M349.2,338.5l170-15.1l42.3,18.9v-3.5L519,318.3l-169.8,15.9C349.2,334.2,349.2,338.4,349.2,338.5z"/>
	<line class="st0" x1="519" y1="318.3" x2="519" y2="323.4"/>
	<line class="st0" x1="516.5" y1="323.7" x2="516.5" y2="428.8"/>
	<polyline class="st0" points="561.5,340.8 609.1,362.9 609.1,365.2 559.6,343.6 	"/>
	<line class="st0" x1="608.3" y1="364.9" x2="608.2" y2="426.7"/>
	<polyline class="st0" points="516.4,318.2 516.4,95.2 523,79.1 	"/>
	<line class="st0" x1="352.7" y1="333.5" x2="353.7" y2="138.6"/>
	<polyline class="st0" points="351.8,341.4 133.7,355.7 133.6,352.3 349.4,337.6 	"/>
	<polygon class="st0" points="159.9,239.4 149.4,241.8 149.4,215 159.9,212.1 	"/>
	<line class="st0" x1="154.9" y1="213.5" x2="154.9" y2="240.6"/>
	<path class="st0" d="M160.2,223.3c-0.3,0.1-10.9,2.9-10.9,2.9"/>
	<polygon class="st0" points="160.1,291.2 149.2,293 149.2,267.5 159.8,265.3 	"/>
	<line class="st0" x1="154.8" y1="292.5" x2="154.8" y2="266.2"/>
	<line class="st0" x1="160.2" y1="275.3" x2="149.2" y2="277.3"/>
	<path class="st0" d="M388.1,362.2c1.5-0.5,31.7-10.9,31.7-10.9l39,8.6l-1.3,4.8l-6.4-0.1l-3.4-0.1l-58.2,2.9L388.1,362.2z"/>
	<polygon class="st0" points="400.3,363.7 419.7,356.4 442.1,362 	"/>
	<line class="st0" x1="447.4" y1="431" x2="447.4" y2="364.2"/>
	<line class="st0" x1="455.7" y1="365" x2="455.7" y2="434.5"/>
	<line class="st0" x1="393.2" y1="367.1" x2="393.2" y2="431.4"/>
	<polyline class="st0" points="445.6,364.8 443.8,368.8 443.7,431.1 	"/>
	<polyline class="st0" points="393,367.2 397.3,370.4 397.3,430.9 	"/>
	<rect x="375.4" y="378.2" class="st0" width="17.5" height="29.5"/>
	<line class="st0" x1="378.7" y1="378.2" x2="378.7" y2="407.6"/>
	<line class="st0" x1="385.6" y1="378.2" x2="385.6" y2="407.6"/>
	<line class="st0" x1="393.2" y1="393.3" x2="378.6" y2="393.3"/>
	<rect x="462.4" y="375.1" class="st0" width="23.5" height="31.2"/>
	<line class="st0" x1="474.5" y1="375.1" x2="474.5" y2="406.1"/>
	<polyline class="st0" points="447.3,415.2 452.7,415.3 482,431.7 482,448.4 	"/>
	<polyline class="st0" points="360.5,446.7 360.5,431.7 389.9,415.1 389.9,431.2 	"/>
	<polygon class="st0" points="208.1,347.2 192.9,348.2 192.9,311 208.1,309.1 	"/>
	<polygon class="st0" points="161.4,350.3 148.3,351.2 148.3,315.8 161.4,314.4 	"/>
	<polygon class="st0" points="238.1,345.1 221.3,346.3 221.3,307.3 238.1,305.2 	"/>
	<polygon class="st0" points="270.5,343 255,344 255,303.5 270.5,302 	"/>
	<polygon class="st0" points="305.9,340.6 286.1,341.9 286.1,299.4 305.8,297.3 	"/>
	<path class="st0" d="M296.1,298.3c0,0.4,0,42.9,0,42.9"/>
	<line class="st0" x1="262.9" y1="302.5" x2="262.9" y2="343.4"/>
	<line class="st0" x1="270.5" y1="322.8" x2="255" y2="324"/>
	<line class="st0" x1="306" y1="318.9" x2="286.1" y2="320.5"/>
	<polygon class="st0" points="344.2,338 333.5,338.7 322.9,339.3 322.9,295.4 344.2,293.5 	"/>
	<polygon class="st0" points="397.1,176.2 387.4,178.4 376.9,180.8 376.9,159.4 376.9,143.6 387.1,141 387.1,141 397.1,138.5 	"/>
	<line class="st0" x1="376.9" y1="159.3" x2="397.3" y2="154.3"/>
	<line class="st0" x1="387.1" y1="141" x2="387.1" y2="178.5"/>
	<line class="st0" x1="429.8" y1="129.7" x2="429.8" y2="168.3"/>
	<line class="st0" x1="440.7" y1="142.9" x2="418.2" y2="148.6"/>
	<polygon class="st0" points="440.8,165.8 418.7,170.7 418.7,132.7 440.8,126.5 	"/>
	<polygon class="st0" points="487.3,154 464.3,158.9 464.3,120.9 487.3,114.7 	"/>
	<line class="st0" x1="212.1" y1="156.8" x2="212" y2="175.9"/>
	<polyline class="st0" points="200.1,160.9 200.1,179.3 211.7,176 223.9,160.7 212.8,154.5 204.7,153 198.7,158.5 198.7,161.1 
		212.8,156.6 212.8,154.5 	"/>
	<polygon class="st0" points="209.9,175.2 202.2,177.3 202.2,161.5 209.9,159.3 	"/>
	<line class="st0" x1="241.1" y1="147.3" x2="241" y2="166.4"/>
	<polyline class="st0" points="229.2,151.4 229.1,169.8 240.7,166.5 252.9,151.2 241.9,145 233.8,143.5 227.8,149 227.8,151.5 
		241.9,147.1 241.9,145 	"/>
	<polygon class="st0" points="238.9,165.7 231.3,167.8 231.3,151.9 238.9,149.8 	"/>
	<line class="st0" x1="273" y1="137.3" x2="272.9" y2="156.4"/>
	<polyline class="st0" points="261.1,141.4 261,159.8 272.6,156.5 284.8,141.2 273.8,135 265.7,133.5 259.7,139 259.7,141.6 
		273.8,137.1 273.8,135 	"/>
	<polygon class="st0" points="270.8,155.7 263.2,157.8 263.2,142 270.8,139.8 	"/>
	<line class="st0" x1="307.4" y1="125.3" x2="307.3" y2="145.5"/>
	<polyline class="st0" points="294.8,129.7 294.7,149.1 307,145.6 319.9,129.5 308.2,122.9 299.6,121.3 293.3,127.1 293.3,129.8 
		308.2,125.1 308.2,122.9 	"/>
	<polygon class="st0" points="305.1,144.8 297,147.1 297,130.3 305.1,128 	"/>
	<line class="st0" x1="343.6" y1="131.1" x2="343.5" y2="135.8"/>
	<line class="st0" x1="343.6" y1="113.8" x2="343.6" y2="125.9"/>
	<polyline class="st0" points="353.5,123 357.2,118.3 344.5,111.2 335.2,109.4 328.2,115.8 328.2,118.7 344.5,113.6 344.5,111.2 	
		"/>
	<polyline class="st0" points="329.8,118.6 329.8,139.8 343.2,135.9 345.1,133.6 	"/>
	<polygon class="st0" points="341.1,135 332.3,137.5 332.3,119.2 341.1,116.7 	"/>
	<line class="st0" x1="475.9" y1="117.5" x2="475.9" y2="156.2"/>
	<line class="st0" x1="487.4" y1="130.6" x2="464.3" y2="135.8"/>
	<polygon class="st0" points="488.3,234.6 464.4,238.2 464.4,198.3 476.7,196 488.3,193.8 	"/>
	<line class="st0" x1="476.7" y1="196" x2="476.7" y2="236.1"/>
	<line class="st0" x1="488.4" y1="210.2" x2="464.2" y2="214.6"/>
	<polygon class="st0" points="441.4,242.1 417.4,245.6 417.4,206.8 429.7,204.6 441.4,202.4 	"/>
	<line class="st0" x1="429.7" y1="204.6" x2="429.7" y2="243.5"/>
	<line class="st0" x1="441.5" y1="218.4" x2="417.2" y2="222.7"/>
	<polygon class="st0" points="397.2,248.3 376,251.6 376,214.7 386.9,212.5 397.2,210.5 	"/>
	<line class="st0" x1="386.9" y1="212.5" x2="386.9" y2="249.7"/>
	<line class="st0" x1="397.3" y1="225.7" x2="375.8" y2="229.8"/>
	<line class="st0" x1="333.8" y1="294" x2="333.8" y2="338.3"/>
	<line class="st0" x1="344.5" y1="315.3" x2="323" y2="316.8"/>
	<polygon class="st0" points="442.8,325.4 415.8,328 415.8,276.2 442.8,272.3 	"/>
	<line class="st0" x1="443" y1="298.7" x2="415.7" y2="301.5"/>
	<line class="st0" x1="429.7" y1="274.5" x2="429.7" y2="326.7"/>
	<polygon class="st0" points="490.8,320.9 461.2,323.7 461.2,269.7 476.2,267.6 490.8,265.6 	"/>
	<line class="st0" x1="475.9" y1="322.3" x2="475.9" y2="267.7"/>
	<line class="st0" x1="491.1" y1="292.8" x2="461.3" y2="296.1"/>
	<polygon class="st0" points="398.8,278.3 373.6,281.7 373.6,331.9 398.8,329.4 	"/>
	<line class="st0" x1="386.6" y1="279.6" x2="386.5" y2="330.7"/>
	<line class="st0" x1="398.8" y1="303.6" x2="373.6" y2="306.1"/>
	<line class="st0" x1="148.8" y1="192.1" x2="149.3" y2="172.8"/>
	<path class="st0" d="M129.2,204.7c0.6-0.3,44.1-13.1,44.1-13.1l4.2,3.4"/>
	<path class="st0" d="M177.6,191.7l-3.5-3.3c0,0-42.1,12.6-44.9,13.2l-0.2,5.9l44-13.2l4.4,3.1"/>
	<polyline class="st0" points="135.8,199.6 135.8,195.9 176.5,182.8 181.7,186.3 178,189.8 	"/>
	<line class="st0" x1="176.5" y1="183.1" x2="176.5" y2="190.6"/>
	<line class="st0" x1="176.5" y1="185" x2="135.9" y2="197.7"/>
	<polyline class="st0" points="178.3,183.5 188.3,170.8 174,163.7 171.8,164.8 172.1,184.1 	"/>
	<polyline class="st0" points="190.1,168.3 173.6,160.5 146.6,170.4 149.4,173.1 	"/>
	<path class="st0" d="M151.7,190.7c0.2-0.6,0.4-18.5,0.4-18.5l19.5-7"/>
	<path class="st0" d="M157.4,188.7c0.2-0.7,0-18.4,0-18.4"/>
	<path class="st0" d="M165.6,186.1c0.1-0.3,0-18.8,0-18.8"/>
	<polyline class="st0" points="173.2,160.5 160.8,160.1 151.1,166.2 151.2,168.6 	"/>
	<line class="st0" x1="177.6" y1="195.6" x2="353.8" y2="145.4"/>
	<polyline class="st0" points="366.9,118.7 366.9,81.5 509.7,34.3 551.1,107.8 550.7,117.6 	"/>
	<polyline class="st0" points="366.8,86.3 359.2,78.3 512.7,26.6 556.8,107.2 554.7,108.4 555.2,110.1 551.4,110.8 	"/>
	<path class="st0" d="M366.2,75.3c-0.2-2,0-5.9,0-5.9l142.6-48.8l3,6.2"/>
	<line class="st0" x1="508.8" y1="20.5" x2="508.8" y2="27.8"/>
	<line class="st0" x1="488.8" y1="27.2" x2="488.8" y2="34.4"/>
	<line class="st0" x1="469.7" y1="40.8" x2="469.7" y2="33.8"/>
	<line class="st0" x1="451" y1="47.3" x2="451" y2="40.2"/>
	<line class="st0" x1="433.3" y1="53.3" x2="433.3" y2="46.2"/>
	<line class="st0" x1="415.5" y1="58.9" x2="415.5" y2="52.4"/>
	<line class="st0" x1="398.5" y1="65" x2="398.5" y2="57.9"/>
	<line class="st0" x1="381.7" y1="70.4" x2="381.7" y2="63.6"/>
	<polygon class="st0" points="400.3,105.3 380.4,111.3 380.4,84.3 390.7,81.1 400.3,78 	"/>
	<line class="st0" x1="390.7" y1="108.2" x2="390.7" y2="81.1"/>
	<polygon class="st0" points="443.4,95.7 421.4,102.4 421.4,70.9 432.2,67.6 443.4,64.3 	"/>
	<line class="st0" x1="432.9" y1="98.9" x2="432.9" y2="67.9"/>
	<polygon class="st0" points="423.6,73.1 423.6,97.7 431,95.8 430.9,70.7 	"/>
	<polygon class="st0" points="435.1,69.5 435.1,94.4 441.8,92.5 441.8,67.6 	"/>
	<line class="st0" x1="508.6" y1="34.9" x2="508.6" y2="75.9"/>
	<polygon class="st0" points="489.3,79.1 466.7,85.8 466.7,57.2 477.8,53.8 489.3,50.2 	"/>
	<line class="st0" x1="478.1" y1="82.5" x2="478.1" y2="53.8"/>
	<path class="st4" d="M353.5,138.7L177.9,190l-0.5,7.4c0,0,1.2,2.7,1.2,3.6s-1.7,148-1.7,148l1.2,1.4l-0.2,83.7"/>
	<path class="st0" d="M210.5,144.6c0-0.3,0-12,0-12l7.8-3l7.3,4.2v3l-6.2,1.7l-0.5,2.9L210.5,144.6z"/>
	<line class="st0" x1="218.3" y1="129.6" x2="218.3" y2="141.4"/>
	<polyline class="st0" points="177.1,153.4 177.1,149.1 170.1,145.9 159.8,149.7 159.8,160.6 	"/>
	<polyline class="st0" points="210.3,141.7 172.6,155.1 170.4,160 	"/>
	<line class="st0" x1="225.5" y1="136.7" x2="367.1" y2="89.1"/>
	<line class="st0" x1="170.1" y1="145.9" x2="170.3" y2="160.5"/>
	<polyline class="st0" points="608,362 610.2,248.6 613.6,244.9 613.6,242.7 609.2,234.8 606.1,232.4 599.9,185.7 584.7,187.9 	"/>
	<polyline class="st0" points="608.6,426.5 513.9,448 482.2,447.7 	"/>
	<polyline class="st0" points="447.2,428.7 514.5,429.3 559.5,424.7 559.5,341.5 	"/>
	<polygon class="st0" points="314.1,425.9 299.3,425.9 287.9,438.9 278.4,438.9 278.4,443 288.3,443 314.3,440.5 	"/>
	<polyline class="st0" points="312.1,425.9 312.1,412.3 298.1,412.3 283.9,425 283.9,438.7 	"/>
	<line class="st1" x1="285.5" y1="423.7" x2="285.5" y2="436.9"/>
	<line class="st1" x1="286.9" y1="422.8" x2="286.9" y2="435.7"/>
	<line class="st1" x1="288.6" y1="421.1" x2="288.6" y2="434.1"/>
	<line class="st1" x1="290.4" y1="419.3" x2="290.4" y2="432.2"/>
	<line class="st1" x1="292" y1="418" x2="292" y2="430.9"/>
	<line class="st1" x1="293.6" y1="416.5" x2="293.6" y2="428.4"/>
	<line class="st1" x1="295.5" y1="414.8" x2="295.5" y2="426.9"/>
	<line class="st1" x1="310.1" y1="412.5" x2="310.1" y2="425.5"/>
	<line class="st1" x1="307.8" y1="412.5" x2="307.8" y2="425.5"/>
	<line class="st1" x1="305.6" y1="412.5" x2="305.6" y2="425.5"/>
	<line class="st1" x1="303.4" y1="412.6" x2="303.4" y2="425.5"/>
	<line class="st1" x1="301.3" y1="412.7" x2="301.3" y2="425.6"/>
	<line class="st1" x1="299.1" y1="412.4" x2="299.1" y2="425.7"/>
	<line class="st1" x1="297" y1="413.4" x2="297" y2="425.8"/>
	<line class="st1" x1="312" y1="423.4" x2="217.1" y2="422.8"/>
	<polygon class="st0" points="342.1,131.5 523,79.1 568.3,157.8 568.5,150.7 524.2,72.4 342.2,126.4 	"/>
	<polyline class="st1" points="269.7,218.5 252.3,222.8 252.3,219.5 	"/>
	<polyline class="st1" points="237.2,226.1 220.8,230.1 220.8,227 	"/>
	<polyline class="st1" points="207.1,233.2 192,236.6 192,233.6 	"/>
	<polyline class="st1" points="160.1,242 147.8,244.8 147.8,242.3 	"/>
	<polyline class="st1" points="343.5,201.7 323,206.4 323,203.7 	"/>
	<polyline class="st1" points="343,268.6 322.7,271.5 322.7,268.2 	"/>
	<polyline class="st1" points="303.9,274.3 286.4,276.7 286.4,273.4 	"/>
	<polyline class="st1" points="268.8,279.1 252.4,281.1 252.4,278.4 	"/>
	<polyline class="st1" points="236.6,283.9 221.5,285.8 221.5,283.3 	"/>
	<polyline class="st1" points="206.2,288.1 192,290 192,287.1 	"/>
	<polyline class="st1" points="351.4,345.2 516.6,332.3 559.7,349.4 	"/>
	<polyline class="st1" points="351.4,351.8 516.8,339.8 559.7,355.1 	"/>
	<line class="st1" x1="411.1" y1="354.3" x2="351.6" y2="358.3"/>
	<polyline class="st1" points="559.3,361.1 516.4,347.2 427.9,353.2 	"/>
	<line class="st1" x1="388.1" y1="362.5" x2="351.4" y2="364.8"/>
	<polyline class="st1" points="559.3,366.2 516.4,354.7 451.8,358.6 	"/>
	<polygon class="st0" points="531.6,324.4 524.8,321.1 524.8,268 527.4,270.2 531.6,273.8 	"/>
	<polygon class="st0" points="544,330.5 537.2,327.1 537.2,277.5 539.7,279.5 544,283.2 	"/>
	<line class="st0" x1="527.2" y1="322.2" x2="527.2" y2="270"/>
	<line class="st0" x1="531.6" y1="299.8" x2="524.8" y2="296.1"/>
	<line class="st0" x1="539.6" y1="328.2" x2="539.6" y2="279.5"/>
	<line class="st0" x1="537.4" y1="303.3" x2="544.1" y2="307.3"/>
	<polygon class="st1" points="186,196.8 183.2,197.5 183.2,195.2 186,194.4 	"/>
	<polygon class="st1" points="190.6,195.4 187.8,196.2 187.8,193.9 190.6,193.1 	"/>
	<polygon class="st1" points="195,194.1 192.2,194.8 192.2,192.5 195,191.8 	"/>
	<polygon class="st1" points="199.6,192.7 196.8,193.5 196.8,191.2 199.6,190.4 	"/>
	<polygon class="st1" points="204.1,191.5 201.3,192.2 201.3,189.9 204.1,189.2 	"/>
	<polygon class="st1" points="209.3,190 206.5,190.8 206.5,188.5 209.3,187.7 	"/>
	<polygon class="st1" points="214,188.7 211.2,189.4 211.2,187.1 214,186.4 	"/>
	<polygon class="st1" points="218.8,187.2 216,188 216,185.7 218.8,184.9 	"/>
	<polygon class="st1" points="223.9,185.8 221.1,186.6 221.1,184.3 223.9,183.5 	"/>
	<polygon class="st1" points="229.1,184.3 226.3,185.1 226.3,182.7 229.1,182 	"/>
	<polygon class="st1" points="234.3,182.8 231.5,183.6 231.5,181.3 234.3,180.5 	"/>
	<polygon class="st1" points="239.5,181.4 236.7,182.1 236.7,179.8 239.5,179.1 	"/>
	<polygon class="st1" points="245,179.8 242.2,180.6 242.2,178.3 245,177.5 	"/>
	<polygon class="st1" points="250,178.5 247.2,179.2 247.2,176.9 250,176.1 	"/>
	<polygon class="st1" points="255.2,177 252.4,177.8 252.4,175.4 255.2,174.7 	"/>
	<polygon class="st1" points="260.7,175.5 257.9,176.2 257.9,173.9 260.7,173.2 	"/>
	<polygon class="st1" points="266.3,173.9 263.5,174.7 263.5,172.4 266.3,171.6 	"/>
	<polygon class="st1" points="272.3,172.2 269.5,173 269.5,170.6 272.3,169.9 	"/>
	<polygon class="st1" points="277.9,170.7 275.1,171.5 275.1,169.2 277.9,168.4 	"/>
	<polygon class="st1" points="283.7,168.9 280.9,169.7 280.9,167.4 283.7,166.6 	"/>
	<polygon class="st1" points="289.8,167.3 287,168 287,165.7 289.8,165 	"/>
	<polygon class="st1" points="295.4,165.6 292.6,166.4 292.6,164.1 295.4,163.3 	"/>
	<polygon class="st1" points="301.7,163.9 298.9,164.7 298.9,162.4 301.7,161.6 	"/>
	<polygon class="st1" points="307.8,162 305,162.8 305,160.5 307.8,159.7 	"/>
	<polygon class="st1" points="314,160.2 311.2,161 311.2,158.7 314,157.9 	"/>
	<polygon class="st1" points="320.1,158.6 317.3,159.3 317.3,157 320.1,156.3 	"/>
	<polygon class="st1" points="326.7,156.7 323.9,157.5 323.9,155.2 326.7,154.4 	"/>
	<polygon class="st1" points="333.1,154.9 330.3,155.7 330.3,153.4 333.1,152.6 	"/>
	<polygon class="st1" points="340,153.3 337.2,154.1 337.2,151.7 340,151 	"/>
	<polygon class="st1" points="345.9,151.6 343.1,152.3 343.1,150 345.9,149.3 	"/>
	<polygon class="st1" points="352.6,149.7 349.8,150.5 349.8,148.2 352.6,147.4 	"/>
	<polyline class="st0" points="353.9,152.7 177.5,200.9 174,199.5 173.6,349.2 	"/>
	<line class="st0" x1="135.7" y1="211.3" x2="173.7" y2="199.3"/>
	<polygon class="st1" points="138.9,208.8 136,209.5 135.9,207 138.9,206.2 	"/>
	<polygon class="st1" points="143.5,207.4 140.6,208.1 140.6,205.7 143.5,204.8 	"/>
	<polygon class="st1" points="148,205.8 145.1,206.6 145.1,204.1 148,203.2 	"/>
	<polygon class="st1" points="152.9,204.5 150,205.2 149.9,202.7 152.9,201.8 	"/>
	<polygon class="st1" points="157.3,203 154.4,203.7 154.3,201.2 157.3,200.4 	"/>
	<polygon class="st1" points="162.4,201.5 159.5,202.2 159.4,199.7 162.4,198.9 	"/>
	<polygon class="st1" points="167.1,199.9 164.2,200.7 164.2,198.2 167.2,197.3 	"/>
	<polygon class="st1" points="173,198.4 170.1,199.1 170,196.7 173,195.8 	"/>
	<line class="st0" x1="345" y1="133.7" x2="341.8" y2="131.8"/>
	<line class="st0" x1="353.8" y1="138.8" x2="345" y2="133.7"/>
	<path class="st0" d="M351.2,128.9c0,0-0.6,4.3,0.4,5.1c1,0.8,2,0.5,2.2,1.6c0.2,1.1,0.2,5.9,0.2,5.9l3.3-0.7l0.1-5.8
		c0,0-1.8-0.7-1.9-1.8c-0.1-1.1,0-5.3,0-5.3L351.2,128.9z"/>
	<path class="st0" d="M357.1,127c0,0-0.6,4.1,0.5,4.9c1,0.8,2,0.5,2.2,1.6c0.2,1.1,0.2,5.9,0.2,5.9l3.3-0.7l0.1-5.8
		c0,0-1.8-0.7-1.9-1.8c-0.1-1.1,0-5.3,0-5.3L357.1,127z"/>
	<path class="st0" d="M369,123.7c0,0-0.6,4.1,0.4,4.9c1,0.8,2,0.5,2.2,1.6s0.2,5.9,0.2,5.9l3.3-0.7l0.1-5.8c0,0-1.8-0.7-1.9-1.8
		c-0.1-1.1,0-5.3,0-5.3L369,123.7z"/>
	<path class="st0" d="M382.2,119.9c0,0-0.6,4.1,0.4,4.9c1,0.8,2,0.5,2.2,1.6c0.2,1.1,0.2,5.9,0.2,5.9l3.3-0.7l0.1-5.8
		c0,0-1.8-0.7-1.9-1.8s0-5.3,0-5.3L382.2,119.9z"/>
	<path class="st0" d="M395.8,116c0,0-0.6,4.1,0.4,4.9c1,0.8,2,0.5,2.2,1.6c0.2,1.1,0.2,5.9,0.2,5.9l3.3-0.7l0.1-5.8
		c0,0-1.8-0.7-1.9-1.8c-0.1-1.1,0-5.3,0-5.3L395.8,116z"/>
	<path class="st0" d="M409.7,111.8c0,0-0.6,4.1,0.4,4.9c1,0.8,2,0.5,2.2,1.6s0.2,5.9,0.2,5.9l3.3-0.7l0.1-5.8c0,0-1.8-0.7-1.9-1.8
		c-0.1-1.1,0-5.3,0-5.3L409.7,111.8z"/>
	<path class="st0" d="M424.3,107.7c0,0-0.6,4.1,0.4,4.9c1,0.8,2,0.5,2.2,1.6c0.2,1.1,0.2,5.9,0.2,5.9l3.3-0.7l0.1-5.8
		c0,0-1.8-0.7-1.9-1.8c-0.1-1.1,0-5.3,0-5.3L424.3,107.7z"/>
	<path class="st0" d="M439.6,103.2c0,0-0.6,4.1,0.4,4.9c1,0.8,2,0.5,2.2,1.6c0.2,1.1,0.2,5.9,0.2,5.9l3.3-0.7l0.1-5.8
		c0,0-1.8-0.7-1.9-1.8s0-5.3,0-5.3L439.6,103.2z"/>
	<path class="st0" d="M455.3,98.7c0,0-0.6,4.1,0.4,4.9c1,0.8,2,0.5,2.2,1.6c0.2,1.1,0.2,5.9,0.2,5.9l3.3-0.7l0.1-5.8
		c0,0-1.8-0.7-1.9-1.8c-0.1-1.1,0-5.3,0-5.3L455.3,98.7z"/>
	<path class="st0" d="M471,94.1c0,0-0.6,4.1,0.4,4.9c1,0.8,2,0.5,2.2,1.6c0.2,1.1,0.2,5.9,0.2,5.9l3.3-0.7l0.1-5.8
		c0,0-1.8-0.7-1.9-1.8c-0.1-1.1,0-5.3,0-5.3L471,94.1z"/>
	<path class="st0" d="M486.3,89.7c0,0-0.6,4.1,0.4,4.9c1,0.8,2,0.5,2.2,1.6c0.2,1.1,0.2,5.9,0.2,5.9l3.3-0.7l0.1-5.8
		c0,0-1.8-0.7-1.9-1.8c-0.1-1.1,0-5.3,0-5.3L486.3,89.7z"/>
	<path class="st0" d="M502.3,85c0,0-0.6,4.1,0.4,4.9c1,0.8,2,0.5,2.2,1.6c0.2,1.1,0.2,5.9,0.2,5.9l3.3-0.7l0.1-5.8
		c0,0-1.8-0.7-1.9-1.8c-0.1-1.1,0-5.3,0-5.3L502.3,85z"/>
	<path class="st0" d="M508.6,83.4c0,0-0.6,4.1,0.4,4.9c1,0.8,2,0.5,2.2,1.6s0.2,5.9,0.2,5.9l3.3-0.7l0.1-5.8c0,0-1.8-0.7-1.9-1.8
		c-0.1-1.1,0-5.3,0-5.3L508.6,83.4z"/>
	<path class="st0" d="M519.6,88.4l5.7-1c0,0,1.4,3.1,0.2,4.4c-1.1,1.3-1.8,1-2.6,1.9c-0.8,0.8-1.3,4.7-1.3,4.7l-2.2,0.2
		C519.4,98.5,519.5,88.4,519.6,88.4z"/>
	<path class="st0" d="M524.3,96.1l5.7-1c0,0,1.4,3.1,0.2,4.4c-1.1,1.3-1.8,1-2.6,1.9c-0.8,0.8-1.3,4.7-1.3,4.7l-2.2,0.2
		C524.1,106.2,524.2,96.1,524.3,96.1z"/>
	<path class="st0" d="M529,103.7l5.7-1c0,0,1.4,3.1,0.2,4.4c-1.1,1.3-1.8,1-2.6,1.9c-0.8,0.8-1.3,4.7-1.3,4.7l-2.2,0.2
		C528.8,113.8,528.9,103.7,529,103.7z"/>
	<path class="st0" d="M532.9,111.6l5.7-1c0,0,1.4,3.1,0.2,4.4c-1.1,1.3-1.8,1-2.6,1.9c-0.8,0.8-1.3,4.7-1.3,4.7l-2.2,0.2
		C532.7,121.7,532.8,111.6,532.9,111.6z"/>
	<path class="st0" d="M536.8,118.1l5.7-1c0,0,1.4,3.1,0.2,4.4c-1.1,1.3-1.8,1-2.6,1.9c-0.8,0.8-1.3,4.7-1.3,4.7l-2.2,0.2
		C536.6,128.2,536.7,118.1,536.8,118.1z"/>
	<path class="st0" d="M558.6,154.6l5.7-1c0,0,1.4,3.1,0.2,4.4c-1.1,1.3-1.8,1-2.6,1.9c-0.8,0.8-1.3,4.7-1.3,4.7l-2.2,0.2
		C558.4,164.7,558.5,154.6,558.6,154.6z"/>
	<path class="st0" d="M554.5,148.3l5.7-1c0,0,1.4,3.1,0.2,4.4c-1.1,1.3-1.8,1-2.6,1.9c-0.8,0.8-1.3,4.7-1.3,4.7l-2.2,0.2
		C554.3,158.4,554.4,148.3,554.5,148.3z"/>
	<path class="st0" d="M551,141.9l5.7-1c0,0,1.4,3.1,0.2,4.4c-1.1,1.3-1.8,1-2.6,1.9c-0.8,0.8-1.3,4.7-1.3,4.7l-2.2,0.2
		C550.8,152,551,141.9,551,141.9z"/>
	<path class="st0" d="M547.7,136.9l5.7-1c0,0,1.4,3.1,0.2,4.4c-1.1,1.3-1.8,1-2.6,1.9c-0.8,0.8-1.3,4.7-1.3,4.7l-2.2,0.2
		C547.5,147,547.6,136.9,547.7,136.9z"/>
	<path class="st0" d="M543.9,130.9l5.7-1c0,0,1.4,3.1,0.2,4.4c-1.1,1.3-1.8,1-2.6,1.9c-0.8,0.8-1.3,4.7-1.3,4.7l-2.2,0.2
		C543.7,141,543.8,130.9,543.9,130.9z"/>
	<path class="st0" d="M540.3,124.2l5.7-1c0,0,1.4,3.1,0.2,4.4c-1.1,1.3-1.8,1-2.6,1.9c-0.8,0.8-1.3,4.7-1.3,4.7l-2.2,0.2
		C540.2,134.3,540.3,124.2,540.3,124.2z"/>
	<path class="st0" d="M567.3,147.9c0-0.3-0.1-9.1-0.1-9.1l-47.6-83.3l-174.5,54.1l-0.5,15.6"/>
	<line class="st0" x1="558.2" y1="122.8" x2="558.2" y2="132"/>
	<ellipse class="st1" cx="467.5" cy="75.6" rx="3.4" ry="3.5"/>
	<ellipse class="st1" cx="476.3" cy="72.9" rx="3.4" ry="3.5"/>
	<ellipse class="st1" cx="516" cy="60.9" rx="3.4" ry="3.5"/>
	<ellipse class="st1" cx="429.2" cy="87.9" rx="3.4" ry="3.5"/>
	<ellipse class="st1" cx="421.6" cy="89.7" rx="3.4" ry="3.5"/>
	<ellipse class="st1" cx="386.2" cy="100.9" rx="3.4" ry="3.5"/>
	<ellipse class="st1" cx="378.4" cy="103" rx="3.4" ry="3.5"/>
	<ellipse class="st1" cx="349.1" cy="112.5" rx="3.4" ry="3.5"/>
	<line class="st0" x1="472.1" y1="70.1" x2="472.1" y2="87.9"/>
	<polyline class="st0" points="459.5,74.1 472.1,78.4 481.3,67.6 	"/>
	<line class="st1" x1="398.3" y1="179.1" x2="374.9" y2="184.7"/>
	<line class="st1" x1="442.3" y1="168.3" x2="417" y2="174.3"/>
	<line class="st1" x1="488.8" y1="157.1" x2="462.8" y2="162.2"/>
	<line class="st1" x1="490.1" y1="237.4" x2="462.2" y2="241.4"/>
	<line class="st1" x1="442" y1="244.8" x2="416.4" y2="248.5"/>
	<line class="st1" x1="397.5" y1="251.6" x2="374.5" y2="255.1"/>
	<polygon class="st0" points="530.4,406.5 523.9,406.5 523.9,374.8 526.8,374.9 530.8,375.2 	"/>
	<line class="st0" x1="526.8" y1="406.6" x2="526.8" y2="375"/>
	<line class="st0" x1="531.1" y1="408.1" x2="522.5" y2="408.1"/>
	<polygon class="st0" points="542.3,406.3 539.1,406.3 536.7,406.3 536.7,376.6 539.3,376.8 542.3,377.1 	"/>
	<line class="st0" x1="539.3" y1="376.8" x2="539.3" y2="406.3"/>
	<line class="st0" x1="535.7" y1="408.1" x2="543" y2="408.1"/>
	<line class="st0" x1="547.3" y1="407.4" x2="553" y2="407.4"/>
	<polygon class="st0" points="552.2,405.7 547.9,405.7 547.9,378.8 549.5,378.9 552.2,379.1 	"/>
	<line class="st0" x1="549.7" y1="378.7" x2="549.7" y2="405.8"/>
	<line class="st0" x1="459.1" y1="409.2" x2="487.3" y2="409.2"/>
	<line class="st1" x1="469.6" y1="357.5" x2="469.6" y2="374.9"/>
	<line class="st1" x1="477.8" y1="356.9" x2="477.8" y2="374.7"/>
	<polyline class="st1" points="480.3,374.8 481.1,364 516.2,362.1 525.2,364.4 526.5,374.5 	"/>
	<polyline class="st1" points="467.3,374.8 466.8,364.4 457.9,364.8 	"/>
	<rect x="384.7" y="431.4" class="st0" width="67.1" height="3.1"/>
	<rect x="376.8" y="434.5" class="st0" width="81.4" height="3.1"/>
	<polygon class="st0" points="467.1,442.2 365.8,441.8 365.8,437.6 467.1,437.6 	"/>
	<polygon class="st0" points="481.9,448.2 360.5,446.7 360.5,441.9 481.9,442.3 	"/>
	<line class="st1" x1="448.9" y1="415.2" x2="448.9" y2="431.5"/>
	<line class="st1" x1="450.7" y1="415.2" x2="450.7" y2="431.5"/>
	<line class="st1" x1="452.7" y1="415.2" x2="452.7" y2="434.4"/>
	<line class="st1" x1="457.4" y1="417.9" x2="457.4" y2="434.5"/>
	<line class="st1" x1="459.1" y1="418.9" x2="459.1" y2="437.7"/>
	<line class="st1" x1="461.1" y1="420.2" x2="461.1" y2="437.7"/>
	<line class="st1" x1="463.3" y1="421.3" x2="463.3" y2="437.9"/>
	<line class="st1" x1="467.4" y1="423.9" x2="467.4" y2="442.5"/>
	<line class="st1" x1="465.4" y1="422.5" x2="465.4" y2="437.4"/>
	<line class="st1" x1="469.9" y1="425.1" x2="469.9" y2="442.3"/>
	<line class="st1" x1="471.9" y1="426.1" x2="471.9" y2="442.7"/>
	<line class="st1" x1="473.9" y1="427.2" x2="473.9" y2="442.4"/>
	<line class="st1" x1="476.4" y1="428.6" x2="476.4" y2="442.4"/>
	<line class="st1" x1="478.6" y1="430" x2="478.6" y2="442.3"/>
	<line class="st1" x1="480.1" y1="431" x2="480.1" y2="442.2"/>
	<line class="st1" x1="387.2" y1="416.7" x2="387.2" y2="431.2"/>
	<line class="st1" x1="385" y1="417.8" x2="385" y2="431.3"/>
	<line class="st1" x1="382.9" y1="419.4" x2="382.9" y2="433.9"/>
	<line class="st1" x1="380.6" y1="420.4" x2="380.6" y2="434.9"/>
	<line class="st1" x1="378.7" y1="421.5" x2="378.7" y2="434.1"/>
	<line class="st1" x1="376.6" y1="422.7" x2="376.6" y2="437.2"/>
	<line class="st1" x1="374.1" y1="424.1" x2="374.1" y2="437.4"/>
	<line class="st1" x1="371.9" y1="425.4" x2="371.9" y2="437.6"/>
	<line class="st1" x1="370" y1="426.5" x2="370" y2="437.6"/>
	<line class="st1" x1="368" y1="427.7" x2="368" y2="437.7"/>
	<line class="st1" x1="365.8" y1="428.8" x2="365.8" y2="437.7"/>
	<line class="st1" x1="363.7" y1="430.2" x2="363.7" y2="442.3"/>
	<line class="st0" x1="184.1" y1="438.6" x2="278.4" y2="443"/>
	<polyline class="st0" points="189.3,438.5 189.3,435.8 278.1,439.7 	"/>
	<polyline class="st0" points="192.1,435.7 192.1,433.2 280.9,436.2 	"/>
	<polyline class="st0" points="195,433.2 195,430.2 283.9,432.9 	"/>
	<polyline class="st0" points="197.9,430 198.1,427 288.4,429 	"/>
	<path class="st0" d="M201.1,426.9c0-0.3,0-3.1,0-3.1l90.3,1.7"/>
	<polyline class="st0" points="278.4,438.9 292.6,424.1 314.1,424.1 314.2,425.9 	"/>
	<line class="st0" x1="135.9" y1="434.3" x2="183.7" y2="434.3"/>
	<polyline class="st0" points="184.1,433 196.1,422.8 201.4,422.8 	"/>
	<line class="st0" x1="314.3" y1="440.5" x2="360.6" y2="440.5"/>
	<line class="st0" x1="513.8" y1="429.1" x2="513.8" y2="447.6"/>
	<line class="st0" x1="599.9" y1="185.7" x2="596.3" y2="208.3"/>
	<polyline class="st0" points="604.9,222.1 610.7,226.3 608.6,234.1 	"/>
	<polyline class="st0" points="597.8,210.4 597.1,215.6 592.5,219.4 592.5,430.5 	"/>
	<line class="st0" x1="559.4" y1="164.7" x2="559.4" y2="337.5"/>
	<polyline class="st0" points="568.3,157.8 567.5,159.1 603,219.5 600.8,222.2 563.5,159.2 	"/>
	<polyline class="st0" points="559.5,171.7 595.6,227.3 600.9,222.1 	"/>
	<line class="st0" x1="561.1" y1="161.7" x2="599.2" y2="224.4"/>
	<polygon class="st0" points="531.7,243.4 525.4,236.8 525.4,196.4 531.7,203.3 	"/>
	<polygon class="st0" points="544.4,256.1 538,249.6 538,211.1 544.4,218 	"/>
	<polygon class="st0" points="554.4,266 549.5,260.9 549.5,225 554.4,230.4 	"/>
	<polygon class="st0" points="418.7,429 401.8,429 401.8,378.5 418.7,378.2 	"/>
	<rect x="422.5" y="377.9" class="st0" width="16.9" height="51.1"/>
	<line class="st0" x1="347.2" y1="394.1" x2="322.2" y2="394.4"/>
	<line class="st0" x1="559.5" y1="359.4" x2="592.5" y2="371.1"/>
	<line class="st0" x1="344.8" y1="120.2" x2="520" y2="67.4"/>
	<line class="st0" x1="425.3" y1="101.3" x2="425.4" y2="84.6"/>
	<line class="st0" x1="382.5" y1="114.3" x2="382.2" y2="98.1"/>
	<polyline class="st0" points="389.5,96 382.6,105.4 374.5,101.1 	"/>
	<polyline class="st0" points="432.9,82.7 425.6,91.6 416.2,87.5 	"/>
	<line class="st0" x1="519.8" y1="56.1" x2="519.8" y2="73.8"/>
	<path class="st1" d="M520,63.9c-0.5-0.3-8.9-5.9-8.9-5.9"/>
	<path class="st1" d="M345.1,116.3c0.5-0.6,7.9-8.8,7.9-8.8"/>
	<polyline class="st1" points="599,185.2 599,180.1 597.8,177.3 580.3,180.5 	"/>
	<polygon class="st0" points="553.6,335 550.3,333.4 548.7,332.6 548.7,285.6 550.3,286.9 553.6,289.5 	"/>
	<line class="st0" x1="550.5" y1="287.4" x2="550.5" y2="333.4"/>
	<line class="st0" x1="553.7" y1="313.2" x2="548.8" y2="310.8"/>
	<line class="st1" x1="524.9" y1="239.7" x2="532.3" y2="246.7"/>
	<line class="st1" x1="537.6" y1="252" x2="544.6" y2="258.9"/>
	<line class="st1" x1="549" y1="263.1" x2="555.2" y2="269"/>
	<polygon class="st0" points="531.2,165.8 524.6,158 524.6,119.4 531.2,128.5 	"/>
	<polygon class="st0" points="544.6,184.3 538,176.5 538,140.1 544.6,149.2 	"/>
	<polygon class="st0" points="554.1,198.4 549.3,192.7 549.1,157.3 554.1,164.5 	"/>
	<line class="st0" x1="229.8" y1="306.2" x2="229.8" y2="345.6"/>
	<line class="st0" x1="200.3" y1="310" x2="200.3" y2="347.6"/>
	<line class="st0" x1="154.8" y1="315" x2="154.8" y2="350.6"/>
	<line class="st0" x1="238.1" y1="325.4" x2="221.4" y2="326.7"/>
	<line class="st0" x1="208.2" y1="328.4" x2="193" y2="329.7"/>
	<line class="st0" x1="161.5" y1="331.6" x2="148.2" y2="332.7"/>
	<polyline class="st1" points="160.4,293.5 147.9,295.8 147.9,293.2 	"/>
	<line class="st0" x1="485.8" y1="390.3" x2="465.2" y2="390.6"/>
	<polyline class="st1" points="351.2,371.3 378.5,369.9 379.5,378.4 	"/>
	<path class="st1" d="M485.9,375.1l1.3-4.5l29-0.9c0.3,0.2,7.2,1.6,7.2,1.6l1.3,3.4"/>
	<line class="st1" x1="516.1" y1="377" x2="486.2" y2="378.1"/>
	<polyline class="st1" points="486.1,385.2 516.5,384.5 522.7,385.3 	"/>
	<polyline class="st1" points="485.9,392.3 516.5,391.8 522.6,391.9 	"/>
	<polyline class="st1" points="486.1,399.4 516.2,399.1 522.3,399.2 	"/>
	<polyline class="st1" points="485.9,406.3 516.5,406.3 522.4,406.4 	"/>
	<path class="st1" d="M455.8,414.7l60.6-0.9c0.5,0.1,42.8-1.4,42.8-1.4"/>
	<polyline class="st1" points="455.6,421.7 516.5,421.5 559.6,418.6 	"/>
	<rect x="561.3" y="166.4" class="st1" width="1.5" height="2.3"/>
	<rect x="563.2" y="169.6" class="st1" width="1.5" height="2.3"/>
	<rect x="565.6" y="173.1" class="st1" width="1.5" height="2.3"/>
	<rect x="567.5" y="176.5" class="st1" width="1.5" height="2.3"/>
	<rect x="569.5" y="179.8" class="st1" width="1.5" height="2.3"/>
	<rect x="571.4" y="182.9" class="st1" width="1.5" height="2.3"/>
	<rect x="573.1" y="185.8" class="st1" width="1.5" height="2.3"/>
	<rect x="575.1" y="188.9" class="st1" width="1.5" height="2.3"/>
	<rect x="576.8" y="192.1" class="st1" width="1.5" height="2.3"/>
	<rect x="578.8" y="195.3" class="st1" width="1.5" height="2.3"/>
	<rect x="580.8" y="198.4" class="st1" width="1.5" height="2.3"/>
	<rect x="582.7" y="201.6" class="st1" width="1.5" height="2.3"/>
	<rect x="584.8" y="205" class="st1" width="1.5" height="2.3"/>
	<rect x="586.9" y="208.4" class="st1" width="1.5" height="2.3"/>
	<rect x="588.8" y="211.8" class="st1" width="1.5" height="2.3"/>
	<rect x="590.8" y="215" class="st1" width="1.5" height="2.3"/>
	<rect x="594.2" y="220.9" class="st1" width="1.5" height="2.3"/>
	<polyline class="st1" points="610.2,248.6 605.8,241.6 606,232.5 	"/>
	<polyline class="st1" points="612.4,246.1 608.6,239.1 605.7,239.1 	"/>
	<line class="st0" x1="210.1" y1="396" x2="191.8" y2="396.2"/>
	<line class="st1" x1="516.3" y1="376.9" x2="522.4" y2="378.2"/>
	<line class="st1" x1="530.5" y1="405.8" x2="535.2" y2="405.8"/>
	<line class="st1" x1="530.5" y1="399.4" x2="535.5" y2="399.6"/>
	<line class="st1" x1="530.9" y1="392.8" x2="535.6" y2="392.8"/>
	<line class="st1" x1="530.7" y1="386.3" x2="535.4" y2="386.3"/>
	<polyline class="st1" points="527.9,374.8 529.6,365.3 537.9,367.2 	"/>
	<line class="st1" x1="538.9" y1="376.6" x2="537.6" y2="367"/>
	<path class="st1" d="M540,376.6c0.1-0.3,1.3-8.8,1.3-8.8l7.9,1.8l0.4,9.2"/>
	<polyline class="st1" points="550.4,378.7 551.4,370.1 559,372.1 	"/>
	<line class="st1" x1="552.4" y1="405.4" x2="559.3" y2="405.5"/>
	<line class="st1" x1="552.2" y1="400.4" x2="559.3" y2="400.6"/>
	<line class="st1" x1="552.2" y1="395.1" x2="559.3" y2="395.2"/>
	<line class="st1" x1="552.2" y1="389.2" x2="559.3" y2="389.2"/>
	<path class="st1" d="M552.5,383.2c0.5,0,6.8,0.5,6.8,0.5"/>
	<polyline class="st1" points="552.2,379.1 553.1,376.6 559.3,378.1 	"/>
	<path class="st1" d="M548.5,378.5c-0.2-0.3-1.4-3.3-1.4-3.3l-4.3-0.5l-1.1,2"/>
	<polyline class="st1" points="537.1,376.6 536.3,373.5 530.9,372.8 529.5,375 	"/>
	<line class="st1" x1="542.5" y1="405.5" x2="546.9" y2="405.5"/>
	<line class="st1" x1="546.5" y1="400.1" x2="542.6" y2="400.1"/>
	<line class="st1" x1="542.5" y1="394" x2="546.8" y2="394"/>
	<line class="st1" x1="530.9" y1="379.4" x2="535.6" y2="379.7"/>
	<line class="st1" x1="542.5" y1="380.6" x2="546.8" y2="381.1"/>
	<line class="st1" x1="387.3" y1="378.4" x2="387.4" y2="362.7"/>
	<polyline class="st1" points="392.9,369.2 391,369.3 389,378.2 	"/>
	<line class="st1" x1="351.3" y1="415.2" x2="393.2" y2="414.7"/>
	<line class="st1" x1="351.3" y1="420.9" x2="393.2" y2="420.3"/>
	<line class="st1" x1="351.3" y1="408.9" x2="374" y2="408.8"/>
	<line class="st1" x1="351.5" y1="402.3" x2="375.2" y2="402.4"/>
	<line class="st1" x1="351.1" y1="395.6" x2="375.4" y2="395.7"/>
	<line class="st1" x1="351.5" y1="390" x2="375.6" y2="390"/>
	<line class="st1" x1="351.3" y1="383.6" x2="375.3" y2="383.3"/>
	<path class="st1" d="M351.7,377.3c1-0.2,22.4-0.2,22.4-0.2l1.3,1.8"/>
	<line class="st1" x1="351.2" y1="427.9" x2="397" y2="427.8"/>
	<rect x="319.1" y="430.1" class="st0" width="26.7" height="10.2"/>
	<line class="st0" x1="559.3" y1="438" x2="559.5" y2="424.7"/>
	<line class="st0" x1="397.4" y1="370.4" x2="443.8" y2="368.8"/>
	<rect x="404" y="382.6" class="st1" width="12.3" height="6.4"/>
	<rect x="424.7" y="382.6" class="st1" width="12.3" height="6.4"/>
	<rect x="404" y="391.3" class="st1" width="12.3" height="6.4"/>
	<rect x="424.7" y="391.3" class="st1" width="12.3" height="6.4"/>
	<rect x="404" y="399.9" class="st1" width="12.3" height="6.4"/>
	<rect x="424.7" y="399.9" class="st1" width="12.3" height="6.4"/>
	<rect x="404" y="408.6" class="st1" width="12.3" height="6.4"/>
	<rect x="424.7" y="408.6" class="st1" width="12.3" height="6.4"/>
	<rect x="404" y="417.3" class="st1" width="12.3" height="6.4"/>
	<rect x="424.7" y="417.3" class="st1" width="12.3" height="6.4"/>
	<polygon class="st1" points="442,374.5 398.8,375.4 398.8,372.2 442,371 	"/>
	<line class="st1" x1="527.2" y1="123.1" x2="527.2" y2="160.7"/>
	<line class="st1" x1="540.8" y1="144" x2="540.8" y2="179.5"/>
	<line class="st1" x1="551.6" y1="161" x2="551.6" y2="195.5"/>
	<line class="st1" x1="528.5" y1="199.9" x2="528.5" y2="239.8"/>
	<line class="st1" x1="541.3" y1="214.7" x2="541.3" y2="253.2"/>
	<line class="st1" x1="551.9" y1="227.9" x2="551.9" y2="263.5"/>
	<line class="st1" x1="554.5" y1="245" x2="549.6" y2="241"/>
	<line class="st1" x1="544.1" y1="233.7" x2="538.1" y2="228.4"/>
	<line class="st1" x1="531.6" y1="221" x2="525.3" y2="215.1"/>
	<line class="st1" x1="554.1" y1="179.8" x2="549.1" y2="174.3"/>
	<line class="st1" x1="544.6" y1="164.8" x2="538" y2="157.5"/>
	<line class="st1" x1="531.3" y1="146.1" x2="524.3" y2="137.4"/>
	<line class="st1" x1="524" y1="161.2" x2="532.5" y2="171.1"/>
	<line class="st1" x1="537.3" y1="179.3" x2="544.5" y2="187.6"/>
	<line class="st1" x1="548.4" y1="194.6" x2="554.3" y2="202"/>
	<polygon class="st1" points="575.8,231.6 571.8,227.4 571.8,199.3 575.8,204.1 	"/>
	<polygon class="st1" points="585.7,245.8 582.9,242.7 582.9,215.5 585.7,219.2 	"/>
	<polygon class="st1" points="563.4,216.4 559.5,212.1 559.5,181.4 563.4,186.2 	"/>
	<polygon class="st1" points="575.8,288.8 571.2,284.7 571.2,255 575.8,260.3 	"/>
	<polygon class="st1" points="574.8,346.9 571.2,345 571.2,307.3 574.8,310.2 	"/>
	<polyline class="st1" points="559.4,337.4 559.4,299.7 563,302.6 563,341.5 	"/>
	<polygon class="st1" points="584.6,351.4 581,349.6 581,315 584.6,317.9 	"/>
	<polygon class="st1" points="585.4,297.8 582.1,295 582.1,267.7 585.4,271.7 	"/>
	<polygon class="st1" points="563.5,277.1 559.3,273.6 559.3,242.1 563.5,246.2 	"/>
	<line class="st0" x1="452.9" y1="358.7" x2="451.1" y2="364.9"/>
	<path class="st1" d="M542.4,387.8c0.2,0,4.1,0.2,4.1,0.2"/>
	<line class="st0" x1="393.1" y1="409.7" x2="374.4" y2="409.7"/>
	<line class="st1" x1="381.5" y1="363.2" x2="382" y2="378"/>
	<line class="st0" x1="465" y1="375.5" x2="465" y2="406"/>
</g>
<g id="KJulius_Pl._10">
</g>
<g id="Julius_Pl._6">
</g>
<g id="Kultorvet">
</g>
<g id="Linnésgade_1_">
</g>
<g id="Nørre_voldgade">
</g>
<g id="H._C._Andersens_Blvd.">
</g>
<g id="San_Diego_x2C__CIBU">
</g>
<g id="København_Kort_1_">
</g>
<g id="gymnasier_kort">
</g>
<g id="bispetorv_kort">
</g>
<g id="kurser_kort">
</g>
<g id="Layer_10">
</g>
</svg>
